<?xml version="1.0" encoding="UTF-8" ?>
<!DOCTYPE svg PUBLIC "-//W3C//DTD SVG 1.1//EN" "http://www.w3.org/Graphics/SVG/1.1/DTD/svg11.dtd"><svg xmlns="http://www.w3.org/2000/svg" width="1628pt" height="541pt" viewBox="0 0 1628 541" version="1.1">
<path fill="white" d=" M 0.00 0.00 L 185.52 0.00 C 232.00 2.88 279.25 9.37 322.23 28.19 C 293.91 51.31 273.79 84.15 266.52 120.01 C 250.53 112.83 233.76 107.25 216.38 104.73 C 184.17 99.92 151.50 99.61 119.01 100.01 C 118.99 213.33 118.99 326.66 119.01 439.98 C 154.52 439.39 190.65 442.62 225.61 434.64 C 251.64 429.18 277.38 418.46 296.52 399.51 C 316.67 379.73 328.90 353.04 334.67 325.66 C 336.86 314.57 338.17 303.32 339.21 292.06 C 370.71 311.38 405.93 323.23 440.59 335.45 C 446.15 337.50 451.66 339.68 457.13 341.94 C 451.27 370.63 441.49 398.53 426.68 423.86 C 401.85 424.46 376.99 423.17 352.19 424.43 C 346.07 424.85 341.54 429.75 338.84 434.86 C 321.36 465.30 304.08 495.87 286.05 525.99 C 253.12 534.50 219.28 538.54 185.41 541.00 L 0.00 541.00 L 0.00 0.00 Z"/>
<path fill="rgb(48, 48, 48)" d=" M 185.52 0.00 L 442.50 0.00 C 408.35 3.99 374.08 13.03 345.02 32.00 C 325.23 44.83 308.44 62.35 297.13 83.10 C 285.83 103.17 280.35 126.16 279.19 149.05 C 277.83 174.06 281.94 199.83 293.98 222.02 C 309.47 251.19 335.54 273.64 364.99 288.01 C 406.81 309.76 453.74 319.29 495.23 341.77 C 507.10 348.64 519.20 356.72 525.93 369.05 C 536.49 386.22 532.26 410.91 516.68 423.65 C 509.05 429.31 500.43 434.10 490.94 435.63 C 463.71 441.54 435.65 439.80 408.00 440.02 C 390.99 440.17 373.96 439.33 356.96 440.11 C 354.57 440.12 353.29 442.38 352.14 444.13 C 333.67 476.50 314.99 508.77 296.27 541.00 L 185.41 541.00 C 219.28 538.54 253.12 534.50 286.05 525.99 C 304.08 495.87 321.36 465.30 338.84 434.86 C 341.54 429.75 346.07 424.85 352.19 424.43 C 376.99 423.17 401.85 424.46 426.68 423.86 C 441.49 398.53 451.27 370.63 457.13 341.94 C 451.66 339.68 446.15 337.50 440.59 335.45 C 405.93 323.23 370.71 311.38 339.21 292.06 C 338.17 303.32 336.86 314.57 334.67 325.66 C 328.90 353.04 316.67 379.73 296.52 399.51 C 277.38 418.46 251.64 429.18 225.61 434.64 C 190.65 442.62 154.52 439.39 119.01 439.98 C 118.99 326.66 118.99 213.33 119.01 100.01 C 151.50 99.61 184.17 99.92 216.38 104.73 C 233.76 107.25 250.53 112.83 266.52 120.01 C 273.79 84.15 293.91 51.31 322.23 28.19 C 279.25 9.37 232.00 2.88 185.52 0.00 Z"/>
<path fill="white" d=" M 442.50 0.00 L 632.36 0.00 C 612.76 33.06 593.66 66.45 574.58 99.82 C 543.05 100.27 511.52 99.81 479.99 100.00 C 460.73 100.34 440.52 101.21 422.94 109.96 C 414.08 115.11 405.99 123.03 403.02 133.07 C 400.65 143.13 399.79 154.20 404.14 163.86 C 409.50 176.40 420.78 185.05 432.20 191.81 C 447.39 200.77 464.21 206.29 480.66 212.40 C 502.85 220.40 524.86 228.94 546.41 238.54 C 569.22 248.38 591.41 260.33 610.04 276.97 C 631.27 295.50 645.79 321.42 650.85 349.14 C 655.04 371.32 656.63 394.33 652.65 416.67 C 648.61 439.71 638.77 461.81 623.98 479.97 C 608.84 498.19 588.83 511.96 567.06 521.09 C 535.97 534.42 501.86 538.21 468.46 541.00 L 296.27 541.00 C 314.99 508.77 333.67 476.50 352.14 444.13 C 353.29 442.38 354.57 440.12 356.96 440.11 C 373.96 439.33 390.99 440.17 408.00 440.02 C 435.65 439.80 463.71 441.54 490.94 435.63 C 500.43 434.10 509.05 429.31 516.68 423.65 C 532.26 410.91 536.49 386.22 525.93 369.05 C 519.20 356.72 507.10 348.64 495.23 341.77 C 453.74 319.29 406.81 309.76 364.99 288.01 C 335.54 273.64 309.47 251.19 293.98 222.02 C 281.94 199.83 277.83 174.06 279.19 149.05 C 280.35 126.16 285.83 103.17 297.13 83.10 C 308.44 62.35 325.23 44.83 345.02 32.00 C 374.08 13.03 408.35 3.99 442.50 0.00 Z"/>
<path fill="rgb(48, 48, 48)" d=" M 632.36 0.00 L 1628.00 0.00 L 1628.00 344.69 C 1614.75 344.58 1600.06 344.36 1589.15 353.20 C 1579.63 359.20 1575.20 369.73 1570.19 379.25 C 1570.00 368.72 1569.97 358.19 1569.96 347.67 C 1563.74 348.46 1556.72 346.43 1550.94 348.99 C 1542.95 359.12 1537.89 371.16 1531.15 382.11 C 1525.29 393.19 1515.99 403.55 1517.01 416.94 C 1516.73 450.95 1517.15 484.97 1517.01 518.99 C 1534.66 519.04 1552.32 519.01 1570.00 518.99 C 1570.11 492.31 1569.86 465.64 1569.92 438.97 C 1569.75 427.27 1571.69 415.10 1578.11 405.10 C 1580.45 400.98 1583.89 397.43 1588.22 395.39 C 1594.14 391.55 1602.46 390.87 1606.01 384.05 C 1613.57 371.64 1620.72 358.98 1628.00 346.40 L 1628.00 541.00 L 468.46 541.00 C 501.86 538.21 535.97 534.42 567.06 521.09 C 588.83 511.96 608.84 498.19 623.98 479.97 C 638.77 461.81 648.61 439.71 652.65 416.67 C 656.63 394.33 655.04 371.32 650.85 349.14 C 645.79 321.42 631.27 295.50 610.04 276.97 C 591.41 260.33 569.22 248.38 546.41 238.54 C 524.86 228.94 502.85 220.40 480.66 212.40 C 464.21 206.29 447.39 200.77 432.20 191.81 C 420.78 185.05 409.50 176.40 404.14 163.86 C 399.79 154.20 400.65 143.13 403.02 133.07 C 405.99 123.03 414.08 115.11 422.94 109.96 C 440.52 101.21 460.73 100.34 479.99 100.00 C 511.52 99.81 543.05 100.27 574.58 99.82 C 593.66 66.45 612.76 33.06 632.36 0.00 Z"/>
<path fill="white" d=" M 702.05 32.08 C 725.04 17.18 752.96 11.98 779.99 11.97 C 805.64 11.93 831.29 12.05 856.94 11.99 C 848.10 26.90 839.25 41.81 830.83 56.96 C 812.54 57.10 794.26 56.82 775.98 57.03 C 754.55 57.05 732.89 66.55 719.68 83.69 C 704.10 102.89 701.00 129.21 703.89 153.05 C 705.66 168.12 711.78 182.74 721.83 194.18 C 728.95 200.61 736.74 206.94 746.08 209.79 C 764.49 215.75 784.73 215.52 802.97 209.02 C 803.02 193.68 803.01 178.34 802.99 163.00 C 786.99 163.07 771.00 162.93 755.00 163.00 C 754.97 148.33 754.99 133.67 755.01 119.00 C 789.00 118.99 823.00 118.99 857.00 119.01 C 856.84 144.02 857.26 169.03 856.98 194.05 C 857.75 201.15 852.91 206.91 849.84 212.81 C 842.54 224.67 836.43 237.23 828.87 248.93 C 826.78 253.43 820.92 252.58 817.04 254.15 C 779.03 261.62 737.23 262.45 702.20 243.83 C 681.50 232.53 664.55 214.24 655.51 192.41 C 647.85 173.64 645.67 153.10 646.04 132.99 C 646.58 92.97 667.29 52.82 702.05 32.08 Z"/>
<path fill="white" d=" M 902.06 94.04 C 925.89 83.90 951.97 78.96 977.88 80.19 C 994.92 82.02 1012.49 87.64 1024.29 100.71 C 1036.05 114.61 1039.67 133.24 1039.91 150.98 C 1040.21 185.65 1039.89 220.32 1040.00 254.99 C 1023.34 255.02 1006.69 255.01 990.05 254.99 C 989.98 246.92 990.02 238.86 989.90 230.80 C 982.05 241.33 972.51 251.49 959.70 255.68 C 942.53 260.82 922.51 260.93 907.03 250.96 C 893.28 242.71 885.41 226.78 885.11 210.97 C 884.13 196.67 887.72 181.44 897.67 170.70 C 907.68 159.80 921.97 153.74 936.38 151.43 C 954.37 148.55 972.54 146.86 990.51 143.80 C 990.05 138.03 989.62 131.82 985.90 127.05 C 981.77 120.19 973.49 117.02 965.88 116.24 C 943.32 114.43 920.76 121.65 901.97 133.93 C 901.97 120.63 901.98 107.34 902.06 94.04 Z"/>
<path fill="white" d=" M 1170.06 83.13 C 1187.05 77.72 1206.95 78.82 1221.94 89.09 C 1229.79 94.43 1234.59 102.87 1239.21 110.93 C 1246.44 100.72 1255.14 90.82 1266.99 85.98 C 1287.21 77.51 1312.51 76.82 1330.89 90.09 C 1344.95 100.76 1349.76 118.91 1351.38 135.67 C 1352.37 154.10 1352.31 172.59 1351.85 191.03 C 1352.22 197.74 1347.79 203.20 1344.84 208.81 C 1335.72 224.10 1327.47 239.90 1318.00 254.98 C 1311.63 254.99 1305.33 255.00 1299.00 255.00 C 1298.95 223.33 1299.02 191.66 1299.06 159.99 C 1299.24 149.11 1298.26 137.43 1291.65 128.33 C 1283.26 118.52 1267.10 117.03 1257.01 125.00 C 1246.19 133.45 1242.88 147.89 1243.03 160.98 C 1242.82 192.31 1243.12 223.65 1243.00 254.99 C 1225.32 255.03 1207.66 255.02 1190.00 254.99 C 1189.93 221.65 1190.06 188.32 1190.03 154.98 C 1190.22 143.52 1187.41 130.44 1177.48 123.45 C 1168.83 118.58 1157.44 118.67 1149.05 124.05 C 1138.71 131.02 1134.47 144.06 1134.24 156.02 C 1133.54 189.00 1134.25 222.00 1134.00 254.99 C 1116.32 255.03 1098.66 255.02 1081.00 254.99 C 1081.19 218.32 1080.65 181.63 1081.14 144.96 C 1082.83 137.69 1087.66 131.62 1091.13 125.09 C 1099.15 111.44 1106.55 97.42 1115.00 84.02 C 1121.30 84.00 1127.65 83.99 1133.98 84.00 C 1133.99 93.03 1133.97 102.06 1134.06 111.09 C 1142.53 98.23 1154.94 87.21 1170.06 83.13 Z"/>
<path fill="white" d=" M 1415.00 97.99 C 1436.09 80.29 1465.99 76.49 1492.13 82.86 C 1510.46 87.42 1526.61 100.03 1534.97 117.02 C 1546.24 137.68 1545.16 162.24 1545.01 185.00 C 1508.53 185.05 1472.06 184.92 1435.58 185.04 C 1436.96 195.18 1440.16 205.80 1448.39 212.57 C 1457.85 219.95 1470.26 221.99 1481.98 221.95 C 1500.26 222.23 1518.56 221.93 1536.86 221.94 C 1529.50 234.07 1522.39 246.35 1515.67 258.84 C 1488.52 257.84 1460.33 262.85 1434.09 253.76 C 1419.87 249.02 1407.07 239.88 1398.40 227.62 C 1387.24 212.22 1383.38 192.72 1383.05 174.01 C 1381.68 145.69 1392.16 115.79 1415.00 97.99 Z"/>
<path fill="rgb(48, 48, 48)" d=" M 1459.35 117.40 C 1469.37 114.37 1481.65 115.92 1488.82 124.17 C 1496.02 131.96 1496.28 143.04 1497.26 152.97 C 1476.72 153.02 1456.19 153.06 1435.66 152.94 C 1437.46 138.38 1445.17 123.15 1459.35 117.40 Z"/>
<path fill="rgb(48, 48, 48)" d=" M 418.12 139.11 C 419.38 132.25 425.80 128.19 430.56 123.75 C 440.63 143.27 448.96 163.78 453.81 185.25 C 443.26 179.58 432.01 174.19 423.99 165.00 C 416.97 158.57 416.11 147.89 418.12 139.11 Z"/>
<path fill="rgb(48, 48, 48)" d=" M 950.65 179.68 C 963.69 176.94 977.07 176.30 990.17 173.85 C 989.48 183.90 991.67 195.00 985.99 204.02 C 979.30 219.04 960.05 226.14 945.06 219.94 C 934.73 215.49 929.80 202.04 935.01 192.00 C 937.60 185.42 944.20 181.64 950.65 179.68 Z"/>
<path fill="white" d=" M 1176.00 267.02 C 1182.30 267.00 1188.66 266.99 1195.00 267.00 C 1195.14 320.42 1194.73 373.84 1195.20 427.26 C 1212.47 401.04 1229.33 374.55 1246.38 348.18 C 1267.27 347.89 1288.17 347.95 1309.07 348.05 C 1288.50 374.60 1268.33 401.46 1247.81 428.05 C 1269.19 458.61 1291.26 488.68 1313.03 518.97 C 1292.01 519.07 1271.00 518.97 1250.00 519.00 C 1231.57 490.68 1213.52 462.13 1195.20 433.74 C 1194.76 462.15 1195.10 490.57 1194.99 518.98 C 1177.32 519.02 1159.66 519.02 1142.00 518.99 C 1141.94 457.32 1142.12 395.64 1141.88 333.97 C 1140.70 326.16 1145.61 319.61 1149.16 313.19 C 1158.27 297.90 1166.53 282.10 1176.00 267.02 Z"/>
<path fill="white" d=" M 679.95 279.99 C 694.56 279.96 709.17 279.97 723.79 280.06 C 740.51 329.48 758.10 378.60 774.86 428.01 C 778.24 436.19 777.96 445.66 782.42 453.40 C 788.11 427.66 797.86 403.13 806.23 378.21 C 817.58 345.51 829.09 312.86 840.18 280.07 C 866.12 279.91 892.06 280.02 918.00 280.00 C 918.01 338.34 917.96 396.69 918.06 455.03 C 919.32 463.13 913.64 469.45 910.12 476.08 C 901.55 490.27 893.50 504.75 885.04 519.01 C 878.02 519.00 871.01 519.00 864.01 519.00 C 863.85 456.24 864.27 393.49 863.81 330.73 C 858.24 357.62 847.57 383.03 839.11 409.06 C 826.31 445.67 813.87 482.41 801.07 519.02 C 788.38 519.02 775.69 519.01 763.02 518.97 C 749.39 480.13 736.20 441.14 722.61 402.29 C 714.89 378.50 705.06 355.31 700.27 330.67 C 699.63 393.44 700.19 456.21 700.00 518.99 C 682.00 519.03 664.02 519.01 646.03 518.99 C 646.14 505.36 645.30 491.70 646.36 478.11 C 654.55 461.66 663.53 445.29 667.08 427.02 C 674.09 391.77 672.30 354.31 659.39 320.60 C 658.30 318.16 658.95 315.53 660.36 313.38 C 667.12 302.39 673.33 291.07 679.95 279.99 Z"/>
<path fill="white" d=" M 963.06 358.04 C 986.89 347.90 1012.97 342.96 1038.88 344.19 C 1055.92 346.02 1073.49 351.64 1085.29 364.71 C 1097.05 378.61 1100.67 397.24 1100.91 414.98 C 1101.21 449.65 1100.89 484.32 1101.00 518.99 C 1084.34 519.02 1067.69 519.01 1051.05 518.99 C 1050.98 510.92 1051.01 502.86 1050.90 494.80 C 1043.18 505.15 1033.88 515.09 1021.40 519.46 C 1002.30 525.49 979.37 524.83 963.33 511.63 C 945.34 497.08 942.18 470.48 949.57 449.61 C 954.87 435.00 967.93 424.44 982.30 419.41 C 991.29 415.87 1000.95 414.82 1010.45 413.50 C 1024.15 411.74 1037.87 410.05 1051.51 407.80 C 1051.05 402.03 1050.62 395.82 1046.90 391.05 C 1042.77 384.19 1034.49 381.02 1026.88 380.24 C 1004.32 378.42 981.76 385.65 962.97 397.93 C 962.97 384.63 962.98 371.33 963.06 358.04 Z"/>
<path fill="white" d=" M 1355.00 361.99 C 1376.09 344.29 1405.99 340.49 1432.13 346.86 C 1450.46 351.42 1466.61 364.03 1474.97 381.02 C 1486.24 401.68 1485.16 426.24 1485.01 449.00 C 1448.53 449.05 1412.06 448.92 1375.58 449.04 C 1376.96 459.18 1380.16 469.80 1388.39 476.57 C 1397.85 483.95 1410.26 485.99 1421.98 485.95 C 1440.26 486.22 1458.56 485.93 1476.86 485.94 C 1469.50 498.07 1462.39 510.35 1455.67 522.84 C 1428.52 521.84 1400.33 526.85 1374.09 517.76 C 1359.87 513.02 1347.07 503.87 1338.40 491.62 C 1327.24 476.22 1323.38 456.72 1323.05 438.01 C 1321.68 409.69 1332.16 379.79 1355.00 361.99 Z"/>
<path fill="white" d=" M 1589.15 353.20 C 1600.06 344.36 1614.75 344.58 1628.00 344.69 L 1628.00 346.40 C 1620.72 358.98 1613.57 371.64 1606.01 384.05 C 1602.46 390.87 1594.14 391.55 1588.22 395.39 C 1583.89 397.43 1580.45 400.98 1578.11 405.10 C 1571.69 415.10 1569.75 427.27 1569.92 438.97 C 1569.86 465.64 1570.11 492.31 1570.00 518.99 C 1552.32 519.01 1534.66 519.04 1517.01 518.99 C 1517.15 484.97 1516.73 450.95 1517.01 416.94 C 1515.99 403.55 1525.29 393.19 1531.15 382.11 C 1537.89 371.16 1542.95 359.12 1550.94 348.99 C 1556.72 346.43 1563.74 348.46 1569.96 347.67 C 1569.97 358.19 1570.00 368.72 1570.19 379.25 C 1575.20 369.73 1579.63 359.20 1589.15 353.20 Z"/>
<path fill="rgb(48, 48, 48)" d=" M 1399.35 381.40 C 1409.37 378.37 1421.65 379.92 1428.82 388.17 C 1436.02 395.96 1436.28 407.04 1437.26 416.97 C 1416.72 417.02 1396.19 417.06 1375.66 416.94 C 1377.46 402.38 1385.17 387.15 1399.35 381.40 Z"/>
<path fill="rgb(48, 48, 48)" d=" M 1011.65 443.68 C 1024.69 440.94 1038.07 440.30 1051.17 437.85 C 1050.48 447.89 1052.67 459.00 1046.99 468.02 C 1040.30 483.03 1021.05 490.14 1006.06 483.94 C 995.73 479.49 990.80 466.04 996.01 456.00 C 998.60 449.41 1005.20 445.64 1011.65 443.68 Z"/>
</svg>