<?xml version="1.0" encoding="UTF-8" ?>
<!DOCTYPE svg PUBLIC "-//W3C//DTD SVG 1.1//EN" "http://www.w3.org/Graphics/SVG/1.1/DTD/svg11.dtd">

<svg xmlns="http://www.w3.org/2000/svg" width="968pt" height="927pt" viewBox="0 0 968 927" version="1.1">

<path id="Main" fill="white" d=" M 658.61 0.00 L 664.85 0.00 C 670.78 1.87 676.20 6.46 677.05 12.95 C 706.50 117.24 737.06 221.24 766.26 325.60 C 740.04 333.22 714.19 342.04 688.10 350.06 C 688.45 351.00 688.80 351.95 689.17 352.90 C 702.22 348.81 715.17 344.39 728.26 340.39 C 738.31 337.59 749.89 336.05 759.32 341.66 C 766.08 346.49 771.87 352.86 775.38 360.45 C 778.23 369.31 774.33 380.14 781.51 387.42 C 830.12 444.50 878.64 501.68 927.16 558.83 C 940.75 575.26 955.40 590.85 968.00 608.08 L 968.00 620.37 C 963.83 633.45 961.11 646.95 956.86 659.99 C 956.06 664.79 952.48 668.33 948.19 670.18 C 759.23 740.52 570.34 811.06 381.39 881.44 C 339.40 896.61 298.11 913.73 255.46 927.00 L 250.38 927.00 C 240.36 922.50 228.83 917.57 224.39 906.65 C 181.71 810.04 138.90 713.46 96.02 616.94 C 93.72 610.95 94.40 604.29 93.94 598.03 C 93.94 580.69 93.38 563.32 94.17 546.00 C 95.89 537.98 103.78 532.92 110.88 529.92 C 130.34 523.78 150.41 519.77 169.96 513.92 C 172.97 513.03 175.67 511.39 178.17 509.54 C 159.73 512.28 142.15 518.75 124.06 523.03 C 117.21 524.81 110.23 526.48 104.12 530.19 C 98.19 533.88 90.98 533.58 84.27 534.32 C 56.76 417.53 27.98 301.03 0.00 184.34 L 0.00 180.35 C 2.62 173.18 6.26 164.14 14.94 162.99 C 229.44 108.45 444.23 55.04 658.61 0.00 Z" />

<path id="TopScreen" fill="rgb(96, 96, 96)" d=" M 516.46 70.61 C 526.78 67.24 536.65 75.94 537.90 86.02 C 558.10 160.63 577.83 235.37 598.05 309.98 C 600.12 318.15 602.68 326.21 604.33 334.48 C 606.76 342.70 601.43 351.55 593.97 354.95 C 586.83 357.85 579.37 359.81 572.00 362.02 C 476.31 390.93 380.60 419.83 284.95 448.91 C 278.62 450.37 271.53 453.61 265.06 450.97 C 259.48 448.34 254.83 443.33 253.99 437.03 C 232.71 357.36 211.31 277.73 189.99 198.08 C 187.57 187.84 182.69 177.57 184.77 166.85 C 187.22 158.51 196.54 155.73 204.04 153.91 C 287.40 131.75 370.66 109.25 454.00 87.00 C 474.86 81.74 495.46 75.26 516.46 70.61 Z" />

<path id="BottomScreen" fill="rgb(96, 96, 96)" d=" M 626.47 435.63 C 635.78 432.42 642.77 440.68 648.02 446.98 C 690.59 503.08 733.02 559.30 775.65 615.36 C 778.85 620.02 782.40 625.05 781.95 631.03 C 781.97 637.94 776.22 643.93 769.73 645.63 C 660.79 683.93 552.00 722.69 443.14 761.21 C 433.96 764.41 424.72 769.32 414.64 767.42 C 409.34 766.19 405.69 761.44 402.90 757.10 C 366.14 693.23 329.29 629.41 292.41 565.61 C 289.90 560.85 289.07 554.74 291.97 549.97 C 294.70 543.59 301.36 540.32 307.67 538.54 C 359.50 521.85 411.30 505.06 463.08 488.20 C 517.62 470.95 571.83 452.52 626.47 435.63 Z" />

<path id="UpButton" fill="rgb(96, 96, 96)" d=" M 726.05 446.48 C 727.16 447.63 728.09 448.94 728.69 450.44 C 730.81 453.86 733.87 456.80 737.35 458.83 C 738.72 459.35 740.08 459.90 741.48 460.37 C 744.98 461.40 749.01 461.40 752.52 460.37 C 753.90 459.89 755.26 459.35 756.65 458.83 C 760.12 456.80 763.19 453.86 765.31 450.44 C 765.89 448.93 766.82 447.63 767.95 446.48 C 767.92 450.52 768.76 454.88 766.39 458.47 C 763.76 462.11 760.54 465.53 756.65 467.83 C 755.27 468.35 753.91 468.90 752.52 469.37 C 749.01 470.39 744.98 470.41 741.48 469.37 C 740.08 468.89 738.72 468.35 737.35 467.83 C 733.48 465.52 730.19 462.13 727.64 458.45 C 727.38 457.95 726.87 456.94 726.62 456.44 C 725.41 453.28 726.16 449.77 726.05 446.48 Z"/>

<path id="RightButton" fill="rgb(96, 96, 96)" d=" M 785.05 460.48 C 786.16 461.63 787.10 462.94 787.69 464.44 C 789.81 467.87 792.87 470.80 796.35 472.83 C 797.71 473.35 799.08 473.89 800.48 474.37 C 803.98 475.40 808.01 475.40 811.52 474.37 C 812.90 473.89 814.26 473.35 815.65 472.83 C 819.12 470.80 822.18 467.86 824.31 464.44 C 824.89 462.94 825.82 461.63 826.95 460.48 C 826.84 463.78 827.57 467.27 826.39 470.44 C 826.13 470.94 825.62 471.95 825.36 472.45 C 822.80 476.13 819.52 479.52 815.65 481.83 C 814.26 482.35 812.90 482.90 811.52 483.37 C 808.01 484.39 803.97 484.42 800.48 483.35 C 799.49 483.04 798.53 482.71 797.59 482.36 C 793.00 480.34 789.54 476.41 786.61 472.47 C 784.23 468.89 785.07 464.52 785.05 460.48 Z"/>

<path id="LeftButton" fill="rgb(96, 96, 96)" d=" M 710.06 486.48 C 710.88 487.43 711.73 488.43 712.32 489.58 C 713.98 493.29 717.30 496.04 720.52 498.40 C 722.14 499.10 723.78 499.80 725.47 500.39 C 729.00 501.38 732.99 501.38 736.53 500.39 C 738.20 499.80 739.84 499.10 741.48 498.40 C 744.70 496.04 748.01 493.29 749.68 489.58 C 750.26 488.43 751.08 487.43 751.94 486.47 C 751.86 489.77 752.54 493.25 751.42 496.43 C 749.29 500.97 745.43 504.45 741.48 507.40 C 739.84 508.11 738.20 508.80 736.53 509.39 C 733.00 510.38 728.99 510.38 725.47 509.39 C 723.78 508.80 722.14 508.10 720.52 507.40 C 717.09 504.96 714.01 501.92 711.61 498.47 C 709.23 494.88 710.06 490.52 710.06 486.48 Z"/>

<path id="DownButton" fill="rgb(96, 96, 96)" d=" M 770.05 502.47 C 771.16 503.62 772.10 504.93 772.69 506.44 C 774.60 509.64 777.48 512.27 780.52 514.40 C 782.14 515.10 783.78 515.80 785.47 516.39 C 788.99 517.36 793.01 517.42 796.53 516.36 C 797.49 516.04 798.46 515.70 799.42 515.33 C 799.93 515.09 800.95 514.61 801.45 514.38 C 804.53 512.30 807.38 509.63 809.31 506.44 C 809.89 504.93 810.82 503.63 811.95 502.48 C 811.92 506.52 812.77 510.88 810.39 514.47 C 807.99 517.92 804.90 520.97 801.48 523.40 C 799.84 524.10 798.20 524.80 796.53 525.39 C 793.00 526.38 789.00 526.39 785.47 525.39 C 783.78 524.80 782.14 524.10 780.52 523.40 C 777.09 520.96 774.01 517.92 771.61 514.47 C 769.22 510.88 770.07 506.52 770.05 502.47 Z"/>

<path id="StartButton" fill="rgb(96, 96, 96)" d=" M 781.06 580.49 C 782.26 581.57 782.99 582.99 783.34 584.56 C 784.89 586.63 786.75 588.94 789.47 589.38 C 791.68 590.30 794.31 590.33 796.53 589.37 C 799.25 588.95 801.10 586.63 802.66 584.56 C 803.01 582.99 803.72 581.56 804.94 580.49 C 804.89 583.49 805.50 586.66 804.38 589.53 C 803.30 593.07 800.08 596.32 796.53 597.38 C 794.31 598.32 791.68 598.31 789.47 597.37 C 785.92 596.31 782.69 593.07 781.62 589.53 C 780.49 586.66 781.10 583.49 781.06 580.49 Z"/>

<path id="SelectButton" fill="rgb(96, 96, 96)" d=" M 810.06 611.49 C 811.26 612.57 811.98 613.99 812.34 615.56 C 813.89 617.63 815.75 619.94 818.47 620.38 C 820.68 621.32 823.30 621.30 825.53 620.38 C 828.24 619.93 830.09 617.63 831.66 615.56 C 832.02 614.00 832.71 612.56 833.94 611.49 C 833.89 614.49 834.50 617.66 833.38 620.53 C 832.30 624.07 829.07 627.31 825.53 628.38 C 823.31 629.30 820.68 629.33 818.47 628.37 C 814.92 627.32 811.70 624.07 810.62 620.54 C 809.49 617.66 810.10 614.49 810.06 611.49 Z"/>

<path id="RightPad" fill="rgb(96, 96, 96)" d=" M 227.99 622.00 C 229.20 621.99 230.42 621.99 231.64 622.00 C 232.27 623.49 232.96 624.96 233.70 626.42 C 234.36 627.75 235.03 629.08 235.72 630.41 C 236.69 632.41 237.69 634.41 238.72 636.40 C 239.36 637.74 240.03 639.08 240.70 640.42 C 241.24 641.47 241.81 642.53 242.39 643.59 C 243.66 647.22 242.73 651.22 242.99 655.00 C 242.58 655.00 241.74 655.00 241.33 655.00 C 240.83 653.78 240.28 652.59 239.76 651.40 C 239.26 650.45 238.75 649.52 238.26 648.59 C 238.02 648.09 237.54 647.10 237.30 646.60 C 236.64 645.25 235.97 643.92 235.29 642.59 C 234.63 641.24 233.96 639.91 233.28 638.59 C 232.12 636.18 230.89 633.81 229.71 631.41 C 227.61 628.67 227.90 625.24 227.99 622.00 Z"/>

<path id="LeftPad" fill="rgb(96, 96, 96)" d=" M 196.99 634.00 C 198.21 633.99 199.44 633.99 200.67 634.00 C 201.16 635.20 201.71 636.39 202.25 637.59 C 202.95 638.90 203.63 640.24 204.29 641.59 C 205.30 643.58 206.31 645.58 207.27 647.60 C 207.76 648.53 208.25 649.47 208.74 650.42 C 208.98 650.92 209.45 651.93 209.69 652.43 C 209.96 652.92 210.50 653.89 210.77 654.38 C 213.02 658.20 211.64 662.80 211.99 667.01 C 211.58 667.00 210.77 667.00 210.36 667.00 C 209.57 665.09 208.62 663.25 207.73 661.40 C 207.03 660.07 206.36 658.74 205.71 657.41 C 205.03 656.07 204.36 654.73 203.71 653.40 C 203.46 652.90 202.97 651.92 202.72 651.43 C 202.04 650.09 201.36 648.75 200.72 647.41 C 200.03 646.08 199.36 644.74 198.70 643.42 C 196.62 640.67 196.90 637.24 196.99 634.00 Z"/>

<path id="BottomPad" fill="rgb(96, 96, 96)" d=" M 277.01 638.91 C 278.18 638.92 279.35 638.98 280.53 639.09 C 282.02 640.12 282.43 642.07 283.29 643.59 C 283.96 644.91 284.63 646.24 285.29 647.59 C 285.96 648.91 286.63 650.24 287.28 651.59 C 288.18 653.40 289.24 655.15 289.93 657.06 C 290.13 660.67 289.95 664.30 290.00 667.92 C 289.41 667.98 288.22 668.09 287.63 668.15 C 286.60 668.59 285.55 668.98 284.49 669.33 C 283.17 669.80 281.83 670.20 280.52 670.69 C 279.50 670.98 278.49 671.31 277.50 671.69 C 276.48 671.97 275.48 672.29 274.49 672.67 C 273.45 672.99 272.43 673.36 271.43 673.79 C 270.96 673.89 270.04 674.11 269.58 674.21 C 268.57 674.62 267.54 674.99 266.50 675.32 C 265.52 675.70 264.52 676.04 263.52 676.35 C 262.25 676.73 260.98 677.07 259.69 677.34 C 260.67 679.37 261.69 681.39 262.72 683.41 C 263.23 684.47 263.77 685.53 264.28 686.61 C 264.53 687.10 265.04 688.09 265.29 688.58 C 265.54 689.08 266.04 690.08 266.29 690.58 C 266.53 691.08 267.02 692.08 267.27 692.58 C 268.09 694.18 268.89 695.80 269.77 697.39 C 271.48 699.94 270.97 703.03 271.01 705.93 C 270.41 705.98 269.22 706.09 268.62 706.14 C 267.60 706.59 266.57 706.99 265.51 707.34 C 264.52 707.69 263.51 708.01 262.50 708.30 C 261.51 708.67 260.51 709.01 259.50 709.32 C 258.51 709.68 257.51 710.01 256.50 710.31 C 255.51 710.68 254.51 711.01 253.50 711.32 C 252.50 711.68 251.50 712.01 250.48 712.31 C 249.17 712.78 247.83 713.19 246.52 713.68 C 245.47 714.00 244.43 714.36 243.42 714.78 C 242.96 714.89 242.05 715.10 241.59 715.20 C 240.09 716.31 238.18 716.06 236.44 715.98 C 235.38 715.09 234.91 713.76 234.23 712.62 C 233.75 711.53 233.23 710.47 232.74 709.40 C 232.04 708.08 231.36 706.74 230.71 705.41 C 230.03 704.07 229.36 702.74 228.71 701.41 C 228.03 700.07 227.36 698.73 226.73 697.39 C 226.23 696.45 225.73 695.52 225.23 694.60 C 224.67 693.31 224.09 692.04 223.57 690.76 C 222.53 691.01 221.50 691.31 220.49 691.66 C 219.48 691.96 218.48 692.30 217.50 692.69 C 216.48 692.97 215.48 693.31 214.50 693.69 C 213.48 693.97 212.48 694.29 211.49 694.67 C 210.45 694.99 209.43 695.36 208.43 695.79 C 207.96 695.89 207.04 696.11 206.58 696.22 C 205.56 696.62 204.53 696.99 203.48 697.32 C 202.17 697.80 200.83 698.20 199.52 698.70 C 198.50 698.97 197.49 699.29 196.50 699.65 C 195.08 700.08 193.71 700.66 192.37 701.29 C 191.43 701.67 190.48 702.03 189.51 702.36 C 188.51 702.68 187.49 702.97 186.47 703.23 C 185.79 701.65 185.07 700.10 184.29 698.58 C 183.77 697.50 183.23 696.45 182.71 695.40 C 182.46 694.90 181.96 693.91 181.71 693.42 C 181.46 692.92 180.97 691.92 180.73 691.42 C 179.90 689.81 179.11 688.19 178.28 686.59 C 177.31 684.57 176.31 682.56 175.23 680.61 C 173.33 677.73 174.13 674.22 174.00 671.00 C 175.21 670.99 176.42 670.99 177.64 671.00 C 178.27 672.49 178.96 673.96 179.70 675.42 C 180.36 676.75 181.03 678.08 181.73 679.41 C 182.23 680.46 182.76 681.52 183.27 682.59 C 184.45 684.85 185.59 687.13 186.66 689.44 C 187.31 691.05 188.72 693.04 190.52 691.32 C 191.52 691.01 192.52 690.68 193.50 690.31 C 194.51 690.01 195.51 689.68 196.50 689.31 C 197.51 689.01 198.52 688.69 199.51 688.33 C 200.54 688.00 201.57 687.62 202.57 687.21 C 203.04 687.11 203.96 686.89 204.42 686.78 C 205.44 686.37 206.47 686.00 207.52 685.68 C 208.83 685.19 210.17 684.78 211.48 684.31 C 212.50 684.01 213.50 683.68 214.50 683.31 C 215.51 683.02 216.51 682.69 217.51 682.33 C 218.55 681.99 219.57 681.62 220.58 681.20 C 221.04 681.11 221.96 680.92 222.42 680.83 C 224.11 678.78 225.68 680.94 226.37 682.55 C 226.59 683.06 227.04 684.08 227.26 684.58 C 228.45 686.84 229.57 689.13 230.68 691.44 C 231.49 692.85 232.50 694.14 233.32 695.56 C 234.10 697.18 234.89 698.80 235.71 700.41 C 236.62 702.88 238.53 706.88 241.60 704.20 C 242.05 704.09 242.96 703.89 243.42 703.79 C 244.43 703.37 245.46 703.00 246.51 702.68 C 247.83 702.19 249.16 701.78 250.48 701.31 C 251.50 701.01 252.50 700.67 253.50 700.31 C 254.51 700.02 255.52 699.69 256.51 699.34 C 257.56 698.99 258.60 698.60 259.62 698.16 C 260.30 698.08 261.67 697.92 262.35 697.84 C 261.69 696.40 261.00 694.98 260.29 693.58 C 259.77 692.51 259.23 691.46 258.72 690.41 C 258.03 689.08 257.36 687.74 256.72 686.41 C 255.89 684.80 255.10 683.19 254.29 681.59 C 253.75 680.51 253.18 679.45 252.61 678.41 C 251.51 675.77 252.06 672.82 252.03 670.05 C 251.97 668.20 254.20 668.08 255.49 667.67 C 256.48 667.30 257.48 666.97 258.50 666.69 C 259.48 666.30 260.48 665.97 261.50 665.69 C 262.48 665.30 263.48 664.97 264.50 664.69 C 265.48 664.30 266.48 663.97 267.50 663.69 C 268.48 663.30 269.48 662.97 270.50 662.68 C 271.49 662.31 272.50 661.98 273.52 661.69 C 274.83 661.20 276.17 660.80 277.49 660.34 C 278.56 659.98 279.62 659.58 280.65 659.12 C 281.27 659.09 282.52 659.02 283.14 658.98 C 282.49 657.86 281.87 656.74 281.26 655.61 C 280.63 654.24 279.96 652.90 279.30 651.56 C 279.03 651.08 278.50 650.11 278.23 649.62 C 276.19 646.40 277.21 642.49 277.01 638.91 Z"/>

</svg>